<?xml version="1.0" standalone="no"?>
<!DOCTYPE svg PUBLIC "-//W3C//DTD SVG 1.1//EN" "http://www.w3.org/Graphics/SVG/1.1/DTD/svg11.dtd" >
<svg xmlns="http://www.w3.org/2000/svg" xmlns:xlink="http://www.w3.org/1999/xlink" version="1.1">
<metadata></metadata>
<defs>
<font id="screwfix_betaheavy" horiz-adv-x="1024" >
<font-face units-per-em="2048" ascent="1536" descent="-512" />
<missing-glyph horiz-adv-x="368" />
<glyph unicode="&#xfb01;" horiz-adv-x="1193" d="M27 764v338h120v80q0 107 22.5 182t66.5 117t100.5 60t132.5 18q84 0 174 -17l-39 -315q-16 2 -35 2q-20 0 -25 -17.5t-5 -58.5v-51h575v-1102h-387v764h-188v-764h-392v764h-120zM696 1427q0 108 61 159.5t163 51.5t162.5 -51.5t60.5 -159.5t-60.5 -159t-162.5 -51 t-163 51t-61 159z" />
<glyph unicode="&#xfb02;" horiz-adv-x="1214" d="M27 764v338h120v59q0 115 30.5 197t88.5 130t133.5 69.5t175.5 21.5q164 0 306 -57l266 20v-1542h-402v1227q-49 22 -106 22q-60 0 -80 -34.5t-20 -94.5v-18h120v-338h-120v-764h-392v764h-120z" />
<glyph horiz-adv-x="0" />
<glyph horiz-adv-x="0" />
<glyph horiz-adv-x="682" />
<glyph unicode="&#xd;" horiz-adv-x="0" />
<glyph unicode=" "  horiz-adv-x="368" />
<glyph unicode="&#x09;" horiz-adv-x="368" />
<glyph unicode="&#xa0;" horiz-adv-x="368" />
<glyph unicode="!" horiz-adv-x="665" d="M125 1518l416 24l-39 -1067h-344zM139 162q0 188 193 188q194 0 194 -188q0 -189 -194 -189q-193 0 -193 189z" />
<glyph unicode="&#x22;" horiz-adv-x="858" d="M55 1247v258h336v-258l-47 -348h-254zM467 1247v258h336v-258l-47 -348h-254z" />
<glyph unicode="#" horiz-adv-x="1490" d="M2 358l70 295h223l39 178h-232l72 291h223l84 383h344l-88 -383h158l84 383h344l-88 -383h238l-66 -291h-238l-41 -178h242l-63 -295h-244l-82 -358h-332l78 358h-162l-82 -358h-331l77 358h-227zM631 653h162l38 178h-159z" />
<glyph unicode="$" d="M23 59l88 340q52 -25 147.5 -51t173.5 -26q148 0 148 67q0 45 -45.5 89t-194.5 149q-125 88 -197.5 204t-72.5 246q0 153 79 266.5t222 157.5v266h313v-256q168 -32 268 -125l-147 -299q-108 87 -221 87q-52 0 -79.5 -20t-27.5 -54q0 -19 6 -35t26.5 -36t37 -34t60 -47.5 t73.5 -58.5q132 -106 178 -154q108 -114 127 -256q4 -35 4 -73q0 -159 -82.5 -264.5t-234.5 -145.5v-283h-314v260q-197 19 -335 86z" />
<glyph unicode="%" horiz-adv-x="1894" d="M45 1108q0 201 88 310.5t268 109.5q178 0 268.5 -112.5t90.5 -307.5q0 -199 -89.5 -313.5t-267.5 -114.5q-358 0 -358 428zM340 1118q0 -99 14 -136.5t49 -37.5q60 0 60 174q0 146 -62 146q-35 0 -48 -32t-13 -114zM453 86l647 1470l338 -129l-652 -1472zM1135 414 q0 201 88 310.5t268 109.5q178 0 268 -112.5t90 -307.5q0 -199 -89.5 -313.5t-266.5 -114.5q-358 0 -358 428zM1430 424q0 -99 14 -136.5t49 -37.5q29 0 44 39.5t15 134.5q0 79 -15 112t-46 33q-35 0 -48 -31.5t-13 -113.5z" />
<glyph unicode="&#x26;" horiz-adv-x="1425" d="M47 397q0 82 24 151.5t70.5 123.5t94.5 93t116 81l-24 35q-111 153 -111 299q0 159 121.5 255.5t323.5 96.5q204 0 328 -90t124 -254q0 -85 -34.5 -157.5t-88.5 -127t-145 -123.5l127 -174l211 201l227 -240l-237 -233l247 -334h-448l-72 94q-173 -117 -399 -117 q-116 0 -204.5 32.5t-142.5 90.5t-81 133t-27 164zM442 428q0 -56 29.5 -87.5t87.5 -31.5q66 0 143 56l-157 215q-56 -38 -79.5 -73t-23.5 -79zM592 1159q0 -48 70 -135l14 -18q49 34 73.5 68.5t24.5 82.5q0 40 -24.5 63t-69.5 23q-88 0 -88 -84z" />
<glyph unicode="'" horiz-adv-x="446" d="M55 1247v258h336v-258l-47 -348h-254z" />
<glyph unicode="(" horiz-adv-x="825" d="M100 621q0 209 20.5 374t68.5 312t133.5 259t209.5 189l238 -268q-248 -231 -248 -866q0 -634 248 -867l-238 -268q-124 77 -209.5 189t-133.5 260t-68.5 312.5t-20.5 373.5z" />
<glyph unicode=")" horiz-adv-x="825" d="M55 -246q248 231 248 867q0 633 -248 866l238 268q124 -77 209.5 -189t133.5 -259.5t68.5 -312t20.5 -373.5t-20.5 -374t-68.5 -312.5t-133.5 -259.5t-209.5 -189z" />
<glyph unicode="*" horiz-adv-x="788" d="M14 1161l86 236l111 -39l63 -33l-8 84l2 119h254v-119l-12 -92l82 41l113 39l69 -228l-110 -41l-105 -22l70 -72l69 -96l-200 -147l-72 94l-39 67l-37 -65l-69 -96l-209 141l67 98l68 72l-84 18z" />
<glyph unicode="+" d="M74 559v324h276v297h324v-297h276v-324h-276v-301h-324v301h-276z" />
<glyph unicode="," horiz-adv-x="534" d="M61 166q0 192 205 192q85 0 140 -47.5t55 -146.5q0 -76 -60 -225l-112 -267l-201 35l64 295q-43 22 -67 64.5t-24 99.5z" />
<glyph unicode="-" horiz-adv-x="745" d="M66 430v313h614v-313h-614z" />
<glyph unicode="." horiz-adv-x="522" d="M63 164q0 192 197 192q199 0 199 -192q0 -101 -53.5 -147t-145.5 -46q-197 0 -197 193z" />
<glyph unicode="/" horiz-adv-x="876" d="M-16 -395l505 1937h404l-506 -1937h-403z" />
<glyph unicode="0" horiz-adv-x="1224" d="M51 760q0 376 135 572t424 196q299 0 431.5 -185t132.5 -583q0 -399 -138 -592t-428 -193q-156 0 -264 48t-172.5 149t-92.5 243.5t-28 344.5zM479 778q0 -105 3 -170.5t11 -116.5t24 -76.5t38.5 -37.5t58.5 -12q48 0 75 34.5t40.5 124.5t13.5 254q0 143 -14 223 t-41.5 111t-75.5 31q-53 0 -81 -32.5t-40 -109t-12 -223.5z" />
<glyph unicode="1" horiz-adv-x="1030" d="M47 1139q257 159 477 366h340v-1505h-413v987q-124 -94 -213 -145z" />
<glyph unicode="2" horiz-adv-x="1003" d="M14 125q0 113 28 214t73 175t99.5 139t109 115.5t99.5 94.5t73 87t28 82q0 111 -143 111t-258 -56l-66 349q173 80 387 80q504 0 504 -414q0 -88 -29 -168.5t-74 -138.5t-101 -117.5t-107 -107t-96.5 -106t-65.5 -114.5h459v-350h-918q-2 29 -2 125z" />
<glyph unicode="3" horiz-adv-x="974" d="M4 33l45 344q136 -37 238 -37q110 0 152 35t42 98q0 70 -33.5 101.5t-115.5 31.5h-99v291h76q158 0 158 137q0 109 -148 109q-89 0 -235 -41l-45 352q68 26 165 44t187 18q80 0 149 -11t136 -40t114 -74t76 -118t29 -167q0 -118 -52 -207.5t-147 -136.5q213 -83 213 -338 q0 -115 -44.5 -203t-122.5 -141t-176.5 -79t-213.5 -26q-77 0 -178.5 16.5t-169.5 41.5z" />
<glyph unicode="4" horiz-adv-x="1167" d="M39 291v293q187 568 258 921h395q-25 -146 -85 -397t-118 -446h136v278h385v-278h131v-371h-131v-291h-385v291h-586z" />
<glyph unicode="5" horiz-adv-x="987" d="M14 35l74 342q107 -37 236 -37q104 0 148 36t44 116q0 60 -32.5 94t-121.5 51.5t-253 17.5v850h755v-362h-385v-148q83 -11 148.5 -31.5t124 -57.5t97 -89.5t61 -130t22.5 -176.5q0 -135 -43.5 -239.5t-120.5 -168.5t-177.5 -96.5t-221.5 -32.5q-82 0 -170.5 15.5 t-136.5 31.5z" />
<glyph unicode="6" horiz-adv-x="1112" d="M43 719q0 199 46 354t129 254t196.5 150t251.5 51q94 0 188 -20t160 -48l-60 -342q-135 49 -241 49q-116 0 -176.5 -68t-75.5 -179q93 22 166 22q242 0 348 -112.5t106 -331.5q0 -258 -137 -390.5t-383 -132.5q-268 0 -393 176t-125 568zM440 596q6 -145 34 -208.5 t93 -63.5q60 0 85.5 41.5t25.5 130.5q0 68 -28 96.5t-95 28.5q-45 0 -115 -25z" />
<glyph unicode="7" horiz-adv-x="976" d="M51 1139v366h910l14 -284q-118 -201 -245.5 -550.5t-192.5 -670.5h-414q53 287 158.5 601t210.5 538h-441z" />
<glyph unicode="8" horiz-adv-x="1191" d="M68 387q0 140 61 235t172 162q-84 63 -128 147t-44 210q0 204 118.5 303.5t358.5 99.5q237 0 363.5 -94.5t126.5 -282.5q0 -62 -11.5 -114.5t-28.5 -88t-47 -70t-55 -55.5t-65 -51q235 -149 235 -385q0 -200 -126 -314t-396 -114q-255 0 -394.5 108.5t-139.5 303.5z M477 432q0 -64 32.5 -92.5t86.5 -28.5q119 0 119 138q0 64 -32 102.5t-97 79.5q-57 -42 -83 -86t-26 -113zM502 1114q0 -63 26 -102t74 -74q60 41 90.5 82t30.5 96q0 111 -109 111q-112 0 -112 -113z" />
<glyph unicode="9" horiz-adv-x="1079" d="M31 1042q0 246 136.5 372t383.5 126q237 0 370.5 -149.5t133.5 -458.5q0 -117 -7.5 -214.5t-27 -197t-51 -176.5t-83 -145.5t-119.5 -113.5t-162.5 -71t-211.5 -26q-183 0 -344 67l70 340q114 -41 243 -41q137 0 203 58t78 188q-73 -22 -149 -22q-244 0 -353.5 118.5 t-109.5 345.5zM438 1044q0 -78 27.5 -111.5t95.5 -33.5q41 0 88 16q-2 81 -6.5 131.5t-15.5 90.5t-31 57.5t-51 17.5q-60 0 -83.5 -39t-23.5 -129z" />
<glyph unicode=":" horiz-adv-x="587" d="M90 164q0 192 197 192q198 0 198 -192q0 -193 -198 -193q-197 0 -197 193zM90 946q0 193 197 193q198 0 198 -193q0 -192 -198 -192q-197 0 -197 192z" />
<glyph unicode=";" horiz-adv-x="587" d="M92 166q0 192 205 192q85 0 140 -47.5t55 -146.5q0 -76 -60 -225l-113 -267l-200 35l63 295q-90 46 -90 164zM109 946q0 193 196 193q92 0 145.5 -46t53.5 -147q0 -192 -199 -192q-196 0 -196 192z" />
<glyph unicode="&#x3c;" d="M57 586v250l869 530l30 -397l-421 -244l432 -223l-29 -385z" />
<glyph unicode="=" d="M74 295v323h876v-323h-876zM74 805v323h876v-323h-876z" />
<glyph unicode="&#x3e;" d="M57 502l430 223l-419 244l30 397l869 -530v-250l-881 -469z" />
<glyph unicode="?" horiz-adv-x="935" d="M18 1466q188 50 385 50q508 0 508 -400q0 -75 -19.5 -137.5t-50.5 -106t-68.5 -81t-75 -70t-68.5 -65t-50.5 -74.5t-19.5 -90v-72h-379v127q0 67 16 123.5t41.5 96t56.5 73t62.5 60t57 51t41.5 52.5t16 58q0 94 -141 94q-114 0 -267 -37zM180 162q0 188 193 188 q194 0 194 -188q0 -189 -194 -189q-193 0 -193 189z" />
<glyph unicode="@" horiz-adv-x="1779" d="M84 506q0 422 231 659.5t643 237.5q176 0 317 -51.5t232.5 -143t140 -217.5t48.5 -276q0 -267 -117.5 -430.5t-325.5 -163.5q-176 0 -258 139q-80 -84 -198 -84q-33 0 -62.5 5.5t-68 27t-66 57t-46.5 101.5t-19 155q0 219 111 339t306 120q108 0 262 -37 q-16 -308 -16 -436q0 -63 9.5 -86t41.5 -23q105 0 105 273q0 100 -19.5 173t-64 128.5t-121.5 83.5t-188 28q-251 0 -395 -148.5t-144 -428.5q0 -107 22 -187.5t60.5 -131.5t95.5 -82t120.5 -43.5t143.5 -12.5q122 0 271 27l30 -285q-145 -45 -342 -45q-360 0 -549.5 191 t-189.5 567zM827 541q0 -92 45 -92q34 0 68 40v13q0 86 10 213q-64 -1 -93.5 -51t-29.5 -123z" />
<glyph unicode="A" horiz-adv-x="1239" d="M-10 0l463 1520h372l424 -1520h-415l-52 250h-315l-57 -250h-420zM543 582h170l-80 389z" />
<glyph unicode="B" horiz-adv-x="1138" d="M88 0v1505h432q152 0 260.5 -30t170.5 -86t90 -128t28 -165q0 -196 -137 -303q170 -99 170 -338q0 -72 -15 -135t-52.5 -123t-95 -102.5t-148.5 -68.5t-207 -26h-496zM469 307h37q105 0 161 37t56 127q0 166 -203 166q-35 0 -51 -6v-324zM469 903h29q95 0 143.5 33.5 t48.5 114.5q0 147 -164 147q-33 0 -57 -6v-289z" />
<glyph unicode="C" horiz-adv-x="1050" d="M18 739q0 363 158 575t438 212q256 0 416 -121l-145 -336q-94 64 -219 64q-109 0 -164.5 -100t-55.5 -285q0 -47 4 -89t18.5 -97t38.5 -93.5t70 -66t107 -27.5q64 0 129 24.5t111 59.5l129 -326q-74 -68 -188 -109.5t-242 -41.5q-126 0 -228 39.5t-171.5 108t-116 165 t-68 207.5t-21.5 237z" />
<glyph unicode="D" horiz-adv-x="1159" d="M88 0v1505h389q161 0 280.5 -37t193.5 -100t119 -160t62 -203t17 -243q0 -152 -18.5 -266t-65 -211t-124 -157.5t-196.5 -94t-282 -33.5h-375zM485 330h52q44 0 78 14t56.5 35.5t38.5 58.5t24.5 70.5t13 84t5.5 86.5t1 91q0 204 -44.5 305t-148.5 101h-76v-846z" />
<glyph unicode="E" horiz-adv-x="940" d="M88 0v1505h821v-340h-420v-209h334l-20 -340h-314v-276h420v-340h-821z" />
<glyph unicode="F" horiz-adv-x="897" d="M88 0v1505h801v-340h-402v-270h338l-20 -340h-318v-555h-399z" />
<glyph unicode="G" horiz-adv-x="1218" d="M37 711q0 180 40.5 328t119 257.5t202.5 169.5t283 60q258 0 424 -150l-145 -325q-128 86 -234 86q-141 0 -202.5 -112.5t-61.5 -326.5q0 -88 10.5 -149.5t37.5 -111t77 -73.5t125 -24q43 0 63 4v234h-147v301h524v-783q-72 -46 -199.5 -80t-273.5 -34q-330 0 -486.5 189 t-156.5 540z" />
<glyph unicode="H" horiz-adv-x="1236" d="M88 0v1505h410v-553h241v553h410v-1505h-410v614h-241v-614h-410z" />
<glyph unicode="I" horiz-adv-x="587" d="M88 0v1505h412v-1505h-412z" />
<glyph unicode="J" horiz-adv-x="819" d="M-6 35l78 319q70 -24 149 -24q58 0 85.5 37t27.5 127v1011h409v-1028q0 -119 -25.5 -210t-80.5 -159t-147.5 -103.5t-221.5 -35.5q-147 0 -274 66z" />
<glyph unicode="K" horiz-adv-x="1206" d="M88 0v1505h416v-579l244 579h442l-336 -710l367 -795h-471l-222 571h-24v-571h-416z" />
<glyph unicode="L" horiz-adv-x="860" d="M88 0v1505h401v-1165h383l-20 -340h-764z" />
<glyph unicode="M" horiz-adv-x="1570" d="M47 0l86 1505h426l223 -760l281 760h399l54 -1505h-396l-8 711l-219 -711h-246l-194 709l-19 -709h-387z" />
<glyph unicode="N" horiz-adv-x="1374" d="M92 0v1505h387l371 -719v719h403v-1505h-389l-368 705v-705h-404z" />
<glyph unicode="O" horiz-adv-x="1236" d="M37 758q0 770 577 770q152 0 265.5 -55.5t183 -159t103.5 -242t34 -313.5q0 -178 -33.5 -319.5t-102 -247t-181.5 -162t-265 -56.5q-157 0 -270.5 54.5t-181 160t-98.5 246t-31 324.5zM467 780q0 -168 13.5 -253.5t44.5 -119.5t93 -34q48 0 79.5 32t51 124.5t19.5 250.5 q0 135 -19.5 215.5t-52 110t-82.5 29.5q-58 0 -89 -30.5t-44.5 -105.5t-13.5 -219z" />
<glyph unicode="P" horiz-adv-x="1077" d="M88 0v1505h395q163 0 278.5 -35.5t181.5 -104.5t95 -157.5t29 -206.5q0 -266 -138.5 -413.5t-396.5 -147.5h-65v-440h-379zM467 768h31q100 0 146 49.5t46 173.5q0 102 -36.5 154.5t-129.5 52.5q-33 0 -57 -6v-424z" />
<glyph unicode="Q" horiz-adv-x="1257" d="M37 758q0 770 577 770q152 0 265.5 -55.5t183 -159t103.5 -242t34 -313.5q0 -425 -180 -625l194 -266l-335 -225l-209 333q-8 0 -26 -1t-26 -1q-157 0 -270.5 54.5t-181 160t-98.5 246t-31 324.5zM467 780q0 -168 13.5 -253.5t44.5 -119.5t93 -34q48 0 79.5 32t51 124.5 t19.5 250.5q0 135 -19.5 215.5t-52 110t-82.5 29.5q-58 0 -89 -30.5t-44.5 -105.5t-13.5 -219z" />
<glyph unicode="R" horiz-adv-x="1126" d="M88 0v1505h393q163 0 278.5 -35.5t182.5 -103.5t97 -157.5t30 -207.5q0 -294 -180 -407l235 -594h-409l-174 479h-72v-479h-381zM469 797h23q104 0 151 41.5t47 162.5q0 177 -170 177h-51v-381z" />
<glyph unicode="S" horiz-adv-x="991" d="M4 59l88 340q52 -25 148 -51t174 -26q147 0 147 67q0 45 -45.5 89t-193.5 149q-125 89 -198 204.5t-73 245.5q0 196 125.5 322.5t341.5 126.5q119 0 233 -37t183 -103l-148 -299q-108 87 -221 87q-52 0 -79 -20t-27 -54q0 -19 6 -35t26.5 -36t37 -34t60 -47.5t73.5 -58.5 q132 -106 178 -154q108 -114 127 -256q4 -35 4 -73q0 -208 -140.5 -322.5t-388.5 -114.5q-254 0 -438 90z" />
<glyph unicode="T" horiz-adv-x="1017" d="M0 1147v358h1018v-358h-303v-1147h-420v1147h-295z" />
<glyph unicode="U" horiz-adv-x="1290" d="M109 647v858h417v-874q0 -154 24.5 -212.5t96.5 -58.5q69 0 94 60t25 213v872h416v-858q0 -363 -129 -520.5t-406 -157.5q-195 0 -311 64.5t-171.5 212.5t-55.5 401z" />
<glyph unicode="V" horiz-adv-x="1128" d="M-6 1505h420l157 -927l162 927h402l-371 -1505h-416z" />
<glyph unicode="W" horiz-adv-x="1906" d="M23 1505h444l129 -952l201 960h323l144 -970l192 962h420l-383 -1505h-467l-92 575l-137 -575h-461z" />
<glyph unicode="X" horiz-adv-x="1282" d="M-6 0l409 819l-342 686h482l133 -319l143 319h447l-379 -704l405 -801h-487l-168 403l-176 -403h-467z" />
<glyph unicode="Y" horiz-adv-x="1177" d="M-6 1505h430l174 -518l156 518h430l-406 -975v-530h-395v530z" />
<glyph unicode="Z" horiz-adv-x="1036" d="M14 322l525 829h-465v354h919l13 -317l-521 -830h502v-358h-964z" />
<glyph unicode="[" horiz-adv-x="788" d="M96 -395v2152h647v-315h-251v-1520h253v-317h-649z" />
<glyph unicode="\" horiz-adv-x="876" d="M-16 1542h403l506 -1937h-404z" />
<glyph unicode="]" horiz-adv-x="788" d="M43 -78h254v1520h-252v315h647v-2152h-649v317z" />
<glyph unicode="^" horiz-adv-x="1107" d="M-2 647l405 858h316l391 -858l-389 -31l-164 435l-170 -435z" />
<glyph unicode="_" d="M74 -31h876v-356h-876v356z" />
<glyph unicode="`" horiz-adv-x="806" d="M80 1346l96 342l520 -236l-96 -264z" />
<glyph unicode="a" horiz-adv-x="962" d="M23 324q0 108 31 182t91.5 114t135.5 56t178 16q51 0 80 -2q-1 66 -42.5 92.5t-129.5 26.5q-75 0 -201 -14l-39 301q153 32 315 32q127 0 217.5 -31t143 -91.5t76.5 -139.5t24 -184v-682h-274l-17 72q-118 -90 -262 -90q-147 0 -237 89t-90 253zM385 338q0 -59 64 -59 q51 0 90 26v115h-31q-78 -6 -100.5 -23t-22.5 -59z" />
<glyph unicode="b" horiz-adv-x="1097" d="M68 0v1513l395 29v-446q113 30 190 30q203 0 302.5 -137.5t99.5 -396.5q0 -278 -106 -441t-298 -163q-65 0 -145.5 20t-147.5 58l-14 -66h-276zM469 352q45 -20 82 -20q108 0 108 248q0 101 -25 153.5t-87 52.5q-33 0 -78 -18v-416z" />
<glyph unicode="c" horiz-adv-x="921" d="M55 545q0 267 132 424t372 157q88 0 171 -25t140 -71l-112 -309q-75 47 -168 47q-69 0 -103 -57.5t-34 -161.5q0 -105 33.5 -156t125.5 -51q43 0 99.5 18t91.5 41l108 -303q-61 -48 -164 -81t-198 -33q-165 0 -277.5 72.5t-164.5 196t-52 292.5z" />
<glyph unicode="d" horiz-adv-x="1118" d="M39 539q0 92 12 172t43 158t79 133t127 88.5t181 33.5q89 0 181 -39v428l389 29v-1542h-277l-22 98q-62 -58 -140 -88t-153 -30q-204 0 -312 142.5t-108 416.5zM434 545q0 -213 129 -213q44 0 92 28v404q-53 22 -88 22t-60 -15t-39 -37.5t-22 -57t-10 -64t-2 -67.5z" />
<glyph unicode="e" horiz-adv-x="978" d="M27 561q0 271 116.5 416t345.5 145q245 0 353 -170q81 -128 82 -351q0 -73 -9 -155h-503q6 -40 23 -65.5t42.5 -36t45 -13.5t48.5 -3q140 0 267 65l102 -291q-77 -56 -182.5 -87t-220.5 -31q-249 0 -379.5 156.5t-130.5 420.5zM401 715h189q-10 58 -33 79t-65 21 q-43 0 -63.5 -20t-27.5 -80z" />
<glyph unicode="f" horiz-adv-x="702" d="M27 764v338h120v80q0 107 24.5 182t72 117t108 60t142.5 18q99 0 206 -17l-38 -315q-23 2 -48 2q-27 0 -43 -5t-22.5 -17t-8 -22.5t-1.5 -31.5v-51h133v-338h-133v-764h-392v764h-120z" />
<glyph unicode="g" horiz-adv-x="1124" d="M59 555q0 88 11.5 165t41.5 153.5t77 131t123.5 88t176.5 33.5q145 0 265 -88l28 84l273 -26v-1006q0 -150 -38 -253.5t-113 -161.5t-171.5 -82.5t-228.5 -24.5q-213 0 -379 53l55 328q157 -35 289 -35q96 0 138 33.5t50 103.5q-77 -35 -165 -35q-209 0 -321 137 t-112 402zM455 561q0 -201 112 -201q38 0 84 19v377q-46 22 -71 22q-41 0 -67.5 -19t-38.5 -54t-15.5 -67t-3.5 -77z" />
<glyph unicode="h" horiz-adv-x="1058" d="M68 0v1513l381 29v-463q118 49 235 49q177 0 251.5 -111t74.5 -323v-694h-398v618q0 87 -14 119.5t-53 32.5q-36 0 -66 -12v-758h-411z" />
<glyph unicode="i" horiz-adv-x="548" d="M51 1427q0 108 60.5 159.5t162.5 51.5t163 -51.5t61 -159.5t-61 -159t-163 -51t-162.5 51t-60.5 159zM82 0v1102h387v-1102h-387z" />
<glyph unicode="j" horiz-adv-x="565" d="M-80 -399l35 331q31 -6 65 -6q42 0 57 25.5t15 85.5v1065h387v-1143q0 -209 -88 -294t-258 -85q-113 0 -213 21zM61 1427q0 108 61 159.5t163 51.5t162.5 -51.5t60.5 -159.5t-60.5 -159t-162.5 -51t-163 51t-61 159z" />
<glyph unicode="k" horiz-adv-x="1101" d="M68 0v1513l403 29v-831l184 391h428l-252 -471l291 -631h-444l-170 436h-37v-436h-403z" />
<glyph unicode="l" horiz-adv-x="536" d="M68 0v1513l401 29v-1542h-401z" />
<glyph unicode="m" horiz-adv-x="1587" d="M59 0v1092l330 30l21 -92q103 98 254 98q184 0 266 -112q107 112 268 112q98 0 165 -29.5t105 -88t54 -135t16 -181.5v-694h-401v625q0 85 -15 114t-61 29q-31 0 -60 -10q3 -30 3 -64v-694h-402v625q0 85 -15 114t-61 29q-32 0 -57 -10v-758h-410z" />
<glyph unicode="n" horiz-adv-x="1060" d="M59 0v1092l330 30l21 -92q106 98 258 98q99 0 167 -29.5t106.5 -88t54.5 -134.5t16 -182v-694h-402v625q0 86 -15.5 114.5t-64.5 28.5q-32 0 -61 -10v-758h-410z" />
<glyph unicode="o" horiz-adv-x="1007" d="M27 559q0 264 120 414.5t355 150.5q156 0 265 -72.5t161.5 -198.5t52.5 -294q0 -264 -121.5 -419.5t-355.5 -155.5q-240 0 -358.5 151.5t-118.5 423.5zM424 571q0 -157 11.5 -199t68.5 -42q32 0 49 20.5t24 71t7 149.5q0 124 -16 165.5t-66 41.5q-55 0 -66.5 -37 t-11.5 -170z" />
<glyph unicode="p" horiz-adv-x="1138" d="M80 -395v1489l315 28l19 -90q126 94 272 94q197 0 299 -140.5t102 -393.5q0 -278 -111 -441t-312 -163q-95 0 -177 39v-422h-407zM487 358q37 -18 76 -18q109 0 109 240q0 108 -25.5 164.5t-87.5 56.5q-30 0 -72 -33v-410z" />
<glyph unicode="q" horiz-adv-x="1146" d="M51 539q0 92 12 172.5t43 158.5t79.5 133t127.5 89t181 34q66 0 137.5 -22.5t128.5 -61.5l26 80l273 -26v-1491h-404v413q-86 -38 -184 -38q-204 0 -312 142.5t-108 416.5zM446 545q0 -221 121 -221q41 0 88 18v420q-43 16 -84 16t-67.5 -20t-38.5 -58t-15.5 -72.5 t-3.5 -82.5z" />
<glyph unicode="r" horiz-adv-x="745" d="M68 0v1092l315 30l23 -102q91 113 241 113q47 0 94 -9l-41 -372q-20 4 -71 4q-90 0 -166 -13v-743h-395z" />
<glyph unicode="s" horiz-adv-x="827" d="M-2 49l84 309q153 -61 283 -61q24 0 36.5 7t12.5 28q0 14 -20.5 31t-71.5 51q-20 13 -31 20q-106 70 -163.5 150.5t-57.5 189.5q0 161 104.5 256.5t278.5 95.5q197 0 338 -104l-119 -281q-74 60 -166 60q-49 0 -49 -29q0 -14 20.5 -30.5t74.5 -52.5q17 -11 26 -17 q41 -28 63 -43.5t53 -41.5t46.5 -48.5t32.5 -53.5t23.5 -67.5t6.5 -81.5q0 -172 -107.5 -269.5t-294.5 -97.5q-198 0 -403 80z" />
<glyph unicode="t" horiz-adv-x="718" d="M16 764v338h127v229l383 23v-252h140v-338h-140v-350q0 -38 18 -60t48 -22q43 0 96 6l-18 -332q-101 -31 -217 -31q-77 0 -133 17.5t-99.5 59.5t-65.5 118t-22 186v408h-117z" />
<glyph unicode="u" horiz-adv-x="1044" d="M55 385v717h402v-637q0 -74 12 -104.5t43 -30.5q36 0 68 18v754h401v-1102h-268l-19 98q-118 -125 -313 -125q-179 0 -252.5 101t-73.5 311z" />
<glyph unicode="v" horiz-adv-x="991" d="M-10 1100h413l93 -637l92 637h413l-284 -1100h-441z" />
<glyph unicode="w" horiz-adv-x="1378" d="M2 1102h379l65 -461l119 465h244l123 -471l65 467h379l-190 -1102h-357l-143 492l-131 -492h-356z" />
<glyph unicode="x" horiz-adv-x="1122" d="M-8 0l315 565l-303 537h457l106 -211l109 211h428l-311 -531l337 -571h-452l-131 246l-125 -246h-430z" />
<glyph unicode="y" horiz-adv-x="1015" d="M-18 1102h413l121 -488l102 488h404l-313 -1049q-83 -275 -167 -374t-247 -99q-129 0 -227 25l49 338q55 -9 82 -9q51 0 70 12.5t36 57.5l19 66z" />
<glyph unicode="z" horiz-adv-x="847" d="M-2 260l321 512h-249v330h739l16 -266l-319 -496h317v-340h-813z" />
<glyph unicode="{" horiz-adv-x="923" d="M45 537v288q148 12 194 44.5t46 121.5q0 49 -22.5 206.5t-22.5 217.5q0 83 31.5 146t80 99.5t117.5 59t132.5 30t137.5 7.5h119l10 -307h-53q-104 0 -143 -26.5t-39 -104.5q0 -61 21.5 -207t21.5 -194q0 -143 -103 -230q103 -95 103 -244q0 -46 -25.5 -192.5 t-25.5 -233.5q0 -55 35.5 -80.5t136.5 -25.5h59l-14 -307h-115q-496 0 -496 342q0 60 27 217.5t27 206.5q0 87 -46.5 119t-193.5 47z" />
<glyph unicode="|" horiz-adv-x="559" d="M96 -395v1937h367v-1937h-367z" />
<glyph unicode="}" horiz-adv-x="923" d="M55 -88h54q104 0 143 26.5t39 104.5q0 61 -21.5 207t-21.5 194q0 142 100 230q-100 93 -100 244q0 46 25.5 192t25.5 233q0 55 -35.5 81t-136.5 26h-59l14 307h115q495 0 495 -342q0 -60 -26.5 -217.5t-26.5 -206.5q0 -87 46.5 -119t193.5 -47v-288q-148 -12 -194 -44.5 t-46 -121.5q0 -49 22.5 -206.5t22.5 -217.5q0 -83 -31.5 -146t-80 -99.5t-117.5 -59t-133 -30t-138 -7.5h-118z" />
<glyph unicode="~" horiz-adv-x="1093" d="M25 545q20 191 101.5 298t197.5 107q62 0 129 -27.5t123 -55t90 -27.5q31 0 50 25.5t32 90.5l286 -34q0 -200 -82 -315t-209 -115q-61 0 -133.5 28t-134 56t-94.5 28q-30 0 -45.5 -22t-30.5 -82z" />
<glyph unicode="&#xa1;" horiz-adv-x="665" d="M125 -410l39 1067h344l33 -1042zM139 971q0 188 195 188q192 0 192 -188q0 -189 -192 -189q-195 0 -195 189z" />
<glyph unicode="&#xa2;" d="M98 545q0 211 83.5 355t240.5 198v270h313v-256q111 -26 178 -82l-112 -309q-75 47 -168 47q-69 0 -103 -57.5t-34 -161.5q0 -105 33.5 -156t125.5 -51q43 0 99.5 18t91.5 41l108 -303q-85 -69 -231 -98v-236h-313v246q-156 51 -234 191t-78 344z" />
<glyph unicode="&#xa3;" d="M59 0v342q111 51 148 118t37 183h-176v320h145q-14 91 -14 176q0 87 24.5 155t65.5 111.5t98 71.5t117.5 39.5t128.5 11.5q87 0 188 -17t164 -45l-74 -331q-94 28 -180 28q-62 0 -87.5 -27.5t-25.5 -93.5q0 -25 7 -79h262l-23 -320h-213q0 -100 -22 -169t-74 -122h461 v-352h-957z" />
<glyph unicode="&#xa4;" d="M0 154l119 165q-60 106 -60 302q0 210 68 323l-127 182l272 197l148 -215q39 4 86 4q55 0 98 -4l148 213l272 -197l-123 -176q68 -110 68 -321q0 -197 -66 -308l121 -167l-264 -189l-137 191q-59 -9 -117 -9q-51 0 -109 7l-133 -187zM391 627q0 -89 26.5 -123.5 t92.5 -34.5t94.5 36t28.5 122q0 90 -27.5 123.5t-95.5 33.5q-67 0 -93 -31.5t-26 -125.5z" />
<glyph unicode="&#xa5;" d="M0 1505h410l116 -528l90 528h410l-235 -667h174v-275h-267v-61h267v-275h-267v-227h-387v227h-270v275h270v61h-270v275h180z" />
<glyph unicode="&#xa6;" horiz-adv-x="559" d="M96 -395v823h367v-823h-367zM96 719v823h367v-823h-367z" />
<glyph unicode="&#xa7;" horiz-adv-x="1110" d="M43 561q0 97 47.5 182t110.5 140q-123 108 -123 250q0 191 135.5 312.5t368.5 121.5q133 0 259 -34.5t203 -96.5l-143 -306q-112 84 -229 84q-53 0 -82 -21.5t-29 -62.5q0 -27 28 -52.5t72.5 -49t98.5 -49.5t108 -60t98.5 -73.5t72.5 -96.5t28 -124q0 -97 -46.5 -182.5 t-107.5 -141.5q119 -107 119 -248q0 -190 -152.5 -312t-412.5 -122q-113 0 -223 34.5t-178 96.5l118 305q125 -84 246 -84q56 0 87.5 21.5t31.5 62.5q0 27 -28 52.5t-72.5 49t-98.5 49.5t-108 59.5t-98.5 73.5t-72.5 97.5t-28 124.5zM434 608q0 -41 50.5 -81t146.5 -89 q45 68 45 135q0 25 -15.5 48.5t-49.5 47.5t-60.5 39.5t-75.5 41.5q-41 -69 -41 -142z" />
<glyph unicode="&#xa8;" horiz-adv-x="806" d="M-4 1417q0 87 48.5 128.5t127.5 41.5q80 0 129 -41.5t49 -128.5t-49 -128.5t-129 -41.5q-79 0 -127.5 41.5t-48.5 128.5zM457 1417q0 87 49 128.5t129 41.5q79 0 127.5 -41.5t48.5 -128.5t-48.5 -128.5t-127.5 -41.5q-80 0 -129 41.5t-49 128.5z" />
<glyph unicode="&#xa9;" horiz-adv-x="1751" d="M96 641q0 378 202 572t574 194q373 0 578 -194.5t205 -571.5q0 -374 -205 -568t-578 -194q-372 0 -574 193.5t-202 568.5zM428 641q0 -465 444 -465q224 0 339.5 117t115.5 348q0 233 -115.5 351t-339.5 118q-444 0 -444 -469zM530 643q0 176 95 284.5t270 108.5 q142 0 223 -69l-78 -222q-53 31 -122 31q-93 0 -93 -129q0 -62 23 -92.5t82 -30.5q30 0 72 12t71 27l74 -215q-45 -36 -119 -60t-143 -24q-175 0 -265 102t-90 277z" />
<glyph unicode="&#xaa;" horiz-adv-x="876" d="M31 854q0 91 26 153.5t77 96t115 47.5t152 14q53 0 82 -2q0 50 -33 68t-106 18q-80 0 -197 -24l-30 272q140 35 282 35q226 0 322 -99t96 -288v-567h-268l-12 63q-91 -78 -211 -78q-133 0 -214 76t-81 215zM365 868q0 -39 45 -39q37 0 73 19v80q-70 -1 -94 -15t-24 -45z " />
<glyph unicode="&#xab;" horiz-adv-x="1134" d="M76 459v227l448 389l39 -346l-172 -154l170 -135l-33 -358zM582 481v183l446 417l41 -360l-156 -141l154 -123l-35 -375z" />
<glyph unicode="&#xac;" d="M88 633v303h858v-549l-303 -14v260h-555z" />
<glyph unicode="&#xad;" horiz-adv-x="745" d="M66 430v313h614v-313h-614z" />
<glyph unicode="&#xae;" horiz-adv-x="1599" d="M96 928q0 169 50.5 301t143 217t220.5 128.5t287 43.5t288 -44t222.5 -128.5t144.5 -216.5t51 -301q0 -168 -51 -299t-144.5 -215.5t-222.5 -128t-288 -43.5q-323 0 -512 176.5t-189 509.5zM412 928q0 -215 93.5 -311.5t291.5 -96.5q199 0 297 97t98 311q0 217 -97.5 314 t-297.5 97q-197 0 -291 -96.5t-94 -314.5zM561 621v618h246q128 0 189 -54t61 -151q0 -124 -76 -164l98 -249h-217l-65 184h-27v-184h-209zM768 965h16q33 0 49.5 15.5t16.5 51.5q0 27 -13.5 39t-43.5 12h-25v-118z" />
<glyph unicode="&#xaf;" horiz-adv-x="806" d="M-4 1280v315h819l-16 -315h-803z" />
<glyph unicode="&#xb0;" horiz-adv-x="751" d="M33 1202q0 157 89 246.5t253 89.5q162 0 253 -90t91 -246q0 -158 -90.5 -248t-253.5 -90q-164 0 -253 90t-89 248zM295 1202q0 -108 80 -108q37 0 59.5 27.5t22.5 80.5q0 51 -22 78t-60 27t-59 -27t-21 -78z" />
<glyph unicode="&#xb1;" d="M76 0v324h876v-324h-876zM76 793v323h276v297h324v-297h276v-323h-276v-301h-324v301h-276z" />
<glyph unicode="&#xb2;" horiz-adv-x="716" d="M14 653q0 88 32.5 166.5t78.5 131t92 94.5t78.5 75.5t32.5 55.5q0 41 -95 41q-77 0 -143 -29l-49 274q112 49 258 49q80 0 144 -14t114 -43.5t77.5 -80.5t27.5 -120q0 -56 -14 -104t-41.5 -87t-52 -66.5t-62.5 -64t-56 -57.5h215v-299h-635q-2 16 -2 78z" />
<glyph unicode="&#xb3;" horiz-adv-x="704" d="M4 592l29 256q85 -23 155 -23q73 0 101 14t28 40q0 25 -21.5 36t-72.5 11h-76v219h64q96 0 96 51t-102 51q-88 0 -152 -22l-26 248q108 38 245 38q57 0 106 -7t97 -25t81.5 -45.5t54 -73t20.5 -103.5q0 -74 -32.5 -130t-92.5 -85q133 -49 133 -208q0 -139 -110.5 -209 t-278.5 -70q-120 0 -246 37z" />
<glyph unicode="&#xb4;" horiz-adv-x="806" d="M80 1452l520 236l96 -342l-520 -158z" />
<glyph unicode="&#xb5;" horiz-adv-x="1050" d="M72 -410v1512h401v-637q0 -79 11.5 -107t50.5 -28q25 0 51 20v752h401v-1102h-231l-21 123q-24 -83 -68 -118.5t-114 -35.5q-80 0 -125 39l6 -389z" />
<glyph unicode="&#xb6;" horiz-adv-x="1198" d="M76 1024q0 237 129 358t381 121h557l-19 -350h-110v-1124q0 -108 -23.5 -182.5t-70 -117t-108 -61t-144.5 -18.5q-119 0 -215 20l39 312q36 -7 65 -7q40 0 54 25.5t14 85.5v457h-80q-119 0 -203.5 23.5t-145.5 78.5t-90.5 148.5t-29.5 230.5z" />
<glyph unicode="&#xb7;" horiz-adv-x="489" d="M47 745q0 193 197 193q198 0 198 -193q0 -192 -198 -192q-197 0 -197 192z" />
<glyph unicode="&#xb8;" horiz-adv-x="806" d="M211 -459l55 180q62 -28 121 -28q70 0 70 45q0 27 -18.5 38t-59.5 11h-96l69 227h193l-35 -98q160 -24 160 -188q0 -109 -66 -170.5t-186 -61.5q-123 0 -207 45z" />
<glyph unicode="&#xb9;" horiz-adv-x="782" d="M10 1296q189 104 326 209h297v-930h-334v551q-62 -40 -168 -96z" />
<glyph unicode="&#xba;" horiz-adv-x="901" d="M27 1047q0 230 106.5 357.5t315.5 127.5q207 0 316 -131t109 -354q0 -230 -107.5 -364t-315.5 -134q-214 0 -319 130.5t-105 367.5zM391 1053q0 -115 11 -153t49 -38q34 0 46.5 40.5t12.5 150.5q0 93 -13.5 129.5t-47.5 36.5q-37 0 -47.5 -34t-10.5 -132z" />
<glyph unicode="&#xbb;" horiz-adv-x="1134" d="M66 721l40 360l447 -417v-183l-451 -399l-34 375l153 123zM571 729l39 346l449 -389v-227l-453 -377l-33 358l170 135z" />
<glyph unicode="&#xbc;" horiz-adv-x="2113" d="M158 1487q212 116 305 188h297v-852h-334v473q-2 -1 -147 -75zM391 121l1049 1411l284 -238l-1052 -1415zM1284 29v200q35 143 117 508l282 -61q-50 -282 -69 -381h76v182h286v-182h54v-266h-54v-148h-286v148h-406z" />
<glyph unicode="&#xbd;" horiz-adv-x="2072" d="M158 1487q212 116 305 188h297v-852h-334v473q-2 -1 -147 -75zM391 121l1049 1411l284 -238l-1052 -1415zM1321 -45q0 78 29 147t70.5 115t82.5 83t70 66t29 48q0 41 -70 41q-74 0 -137 -29l-47 264q108 47 247 47q99 0 171.5 -23t118.5 -80t46 -145q0 -40 -9.5 -76.5 t-22 -62.5t-35 -54.5t-39 -45.5t-44 -43.5t-40.5 -40.5h180v-287h-598q-2 16 -2 76z" />
<glyph unicode="&#xbe;" horiz-adv-x="1992" d="M186 813l29 246q80 -23 150 -23t96 13.5t26 37.5t-21 35t-69 11h-73v210h61q92 0 92 50q0 49 -98 49q-79 0 -146 -23l-24 238q107 39 235 39q69 0 126.5 -11.5t108.5 -37.5t80 -76t29 -119q0 -146 -118 -207q127 -50 127 -201q0 -68 -30.5 -120.5t-83 -84t-118.5 -47.5 t-143 -16q-114 0 -236 37zM270 121l1049 1411l285 -238l-1053 -1415zM1163 29v200q35 143 117 508l283 -61q-40 -225 -70 -381h76v182h286v-182h54v-266h-54v-148h-286v148h-406z" />
<glyph unicode="&#xbf;" horiz-adv-x="935" d="M25 16q0 75 19.5 137.5t50.5 106t68.5 81t75 70.5t68.5 65.5t50.5 74.5t19.5 90v72h379v-127q0 -91 -30 -163.5t-73 -117t-85.5 -81t-72.5 -74.5t-30 -78q0 -95 141 -95q113 0 266 37l46 -348q-184 -49 -386 -49q-507 0 -507 399zM369 971q0 188 194 188q193 0 193 -188 q0 -189 -193 -189q-194 0 -194 189z" />
<glyph unicode="&#xc0;" horiz-adv-x="1239" d="M-16 0l462 1520h373l424 -1520h-416l-51 250h-315l-58 -250h-419zM362 1720l52 361l587 -174l-63 -273zM537 582h170l-80 389z" />
<glyph unicode="&#xc1;" horiz-adv-x="1239" d="M-16 0l462 1520h373l424 -1520h-416l-51 250h-315l-58 -250h-419zM307 1907l588 174l51 -361l-575 -86zM537 582h170l-80 389z" />
<glyph unicode="&#xc2;" horiz-adv-x="1239" d="M-16 0l462 1520h373l424 -1520h-416l-51 250h-315l-58 -250h-419zM248 1864q8 4 38.5 20.5t37.5 20t33 17.5t33.5 18.5t29 16.5t30.5 18t26.5 16.5t28.5 18.5t25 18t27 20h176l277 -195l-176 -239l-195 141q-120 -82 -246 -143zM537 582h170l-80 389z" />
<glyph unicode="&#xc3;" horiz-adv-x="1239" d="M-16 0l462 1520h373l424 -1520h-416l-51 250h-315l-58 -250h-419zM117 1671q2 51 10 98t29 100.5t52 92t84.5 64.5t121.5 26q70 0 145 -24.5t136.5 -49t97.5 -24.5t56.5 22.5t24.5 83.5l263 -41q2 -25 2 -65q0 -154 -60 -241t-178 -87q-78 0 -158.5 25t-150.5 50t-123 25 q-73 0 -84 -98zM537 582h170l-80 389z" />
<glyph unicode="&#xc4;" horiz-adv-x="1239" d="M-16 0l462 1520h373l424 -1520h-416l-51 250h-315l-58 -250h-419zM184 1823q0 99 55 144.5t148 45.5q94 0 148.5 -45.5t54.5 -144.5t-54.5 -145t-148.5 -46q-93 0 -148 46t-55 145zM537 582h170l-80 389zM659 1823q0 99 54.5 144.5t148.5 45.5q93 0 148 -45.5t55 -144.5 t-55 -145t-148 -46q-94 0 -148.5 46t-54.5 145z" />
<glyph unicode="&#xc5;" horiz-adv-x="1239" d="M-16 0l462 1520h373l424 -1520h-416l-51 250h-315l-58 -250h-419zM324 1853q0 131 78.5 202t228.5 71q149 0 229 -71t80 -202q0 -132 -80.5 -203t-228.5 -71q-149 0 -228 71t-79 203zM537 582h170l-80 389zM551 1853q0 -77 80 -77q40 0 61 20t21 57q0 35 -21.5 55.5 t-60.5 20.5t-59.5 -20t-20.5 -56z" />
<glyph unicode="&#xc6;" horiz-adv-x="1937" d="M-16 0l1020 1505h903v-340h-420v-209h334l-21 -340h-313v-276h420v-340h-813v391h-375l-227 -391h-508zM901 733h193v326z" />
<glyph unicode="&#xc7;" horiz-adv-x="1050" d="M12 739q0 363 158 575t438 212q256 0 416 -121l-145 -336q-94 64 -220 64q-109 0 -164 -99.5t-55 -285.5q0 -47 4 -89t18.5 -97t38.5 -93.5t70 -66t107 -27.5q64 0 129 24.5t111 59.5l129 -326q-74 -68 -188.5 -109.5t-242.5 -41.5q-24 0 -34 2l-21 -60 q91 -9 135.5 -61.5t44.5 -153.5q0 -114 -69.5 -176.5t-196.5 -62.5q-135 0 -231 47l55 190q60 -31 143 -31q82 0 82 48q0 24 -21 34.5t-69 10.5h-119l76 251q-130 48 -216.5 157.5t-124.5 250t-38 311.5z" />
<glyph unicode="&#xc8;" horiz-adv-x="940" d="M82 0v1505h821v-340h-420v-209h334l-20 -340h-314v-276h420v-340h-821zM201 1720l51 361l588 -174l-64 -273z" />
<glyph unicode="&#xc9;" horiz-adv-x="940" d="M82 0v1505h821v-340h-420v-209h334l-20 -340h-314v-276h420v-340h-821zM147 1907l588 174l51 -361l-575 -86z" />
<glyph unicode="&#xca;" horiz-adv-x="940" d="M82 0v1505h821v-340h-420v-209h334l-20 -340h-314v-276h420v-340h-821zM106 1864q9 5 47 25t47 25t39 21.5t40.5 22.5t34 20t37 23t31.5 21.5t34 25.5h176l276 -195l-176 -239l-194 141q-120 -82 -246 -143z" />
<glyph unicode="&#xcb;" horiz-adv-x="940" d="M43 1823q0 99 55 144.5t148 45.5q94 0 148.5 -45.5t54.5 -144.5t-54.5 -145t-148.5 -46q-93 0 -148 46t-55 145zM82 0v1505h821v-340h-420v-209h334l-20 -340h-314v-276h420v-340h-821zM518 1823q0 99 54.5 144.5t148.5 45.5q93 0 148 -45.5t55 -144.5t-55 -145t-148 -46 q-94 0 -148.5 46t-54.5 145z" />
<glyph unicode="&#xcc;" horiz-adv-x="587" d="M23 1720l51 361l547 -164l-64 -277zM88 0v1505h412v-1505h-412z" />
<glyph unicode="&#xcd;" horiz-adv-x="587" d="M2 1917l547 164l51 -361l-534 -80zM88 0v1505h412v-1505h-412z" />
<glyph unicode="&#xce;" horiz-adv-x="587" d="M-104 1864q8 4 38.5 20.5t37.5 20t33 17.5t33.5 18.5t29 16.5t30.5 18t26.5 16.5t28.5 18.5t25 18t27 20h176l276 -195l-176 -239l-194 141q-120 -82 -246 -143zM82 0v1505h412v-1505h-412z" />
<glyph unicode="&#xcf;" horiz-adv-x="587" d="M-119 1823q0 94 53.5 138t141.5 44q194 0 194 -182q0 -95 -52 -139t-142 -44q-88 0 -141.5 44.5t-53.5 138.5zM88 0v1505h412v-1505h-412zM317 1823q0 182 195 182q88 0 141.5 -44t53.5 -138t-53.5 -138.5t-141.5 -44.5q-90 0 -142.5 44t-52.5 139z" />
<glyph unicode="&#xd0;" horiz-adv-x="1261" d="M14 600v322h176v583h390q161 0 280.5 -37t193.5 -100t118.5 -160t61.5 -203t17 -243q0 -152 -18.5 -266t-65 -211t-124 -157.5t-196.5 -94t-282 -33.5h-375v600h-176zM588 330h51q44 0 78 14t56.5 35.5t38.5 58.5t24.5 70.5t13 84t5.5 86.5t1 91q0 205 -44 305.5 t-148 100.5h-76v-254h162l-19 -322h-143v-270z" />
<glyph unicode="&#xd1;" horiz-adv-x="1374" d="M86 0v1505h387l371 -719v719h403v-1505h-389l-369 705v-705h-403zM186 1671q2 51 10 98t29 100.5t52 92t84.5 64.5t121.5 26q69 0 145 -24.5t137 -49t97 -24.5t57 22.5t25 83.5l262 -41q2 -25 2 -65q0 -154 -59.5 -241t-177.5 -87q-78 0 -158.5 25t-150.5 50t-123 25 q-73 0 -84 -98z" />
<glyph unicode="&#xd2;" horiz-adv-x="1236" d="M31 758q0 770 577 770q152 0 265.5 -55.5t183 -159t103.5 -242t34 -313.5q0 -178 -33.5 -319.5t-102 -247t-181.5 -162t-265 -56.5q-157 0 -270.5 54.5t-181 160t-98.5 246t-31 324.5zM342 1720l51 361l588 -174l-63 -273zM461 780q0 -168 13.5 -253.5t44.5 -119.5 t93 -34q48 0 79.5 32t51 124.5t19.5 250.5q0 135 -19.5 215.5t-52 110t-82.5 29.5q-58 0 -89 -30.5t-44.5 -105.5t-13.5 -219z" />
<glyph unicode="&#xd3;" horiz-adv-x="1236" d="M31 758q0 770 577 770q152 0 265.5 -55.5t183 -159t103.5 -242t34 -313.5q0 -178 -33.5 -319.5t-102 -247t-181.5 -162t-265 -56.5q-157 0 -270.5 54.5t-181 160t-98.5 246t-31 324.5zM276 1907l588 174l51 -361l-575 -86zM461 780q0 -168 13.5 -253.5t44.5 -119.5 t93 -34q48 0 79.5 32t51 124.5t19.5 250.5q0 135 -19.5 215.5t-52 110t-82.5 29.5q-58 0 -89 -30.5t-44.5 -105.5t-13.5 -219z" />
<glyph unicode="&#xd4;" horiz-adv-x="1236" d="M31 758q0 770 577 770q152 0 265.5 -55.5t183 -159t103.5 -242t34 -313.5q0 -178 -33.5 -319.5t-102 -247t-181.5 -162t-265 -56.5q-157 0 -270.5 54.5t-181 160t-98.5 246t-31 324.5zM231 1864q9 5 47 25t47 25t39 21.5t40.5 22.5t34 20t37 23t31.5 21.5t34 25.5h176 l276 -195l-176 -239l-194 141q-120 -82 -246 -143zM461 780q0 -168 13.5 -253.5t44.5 -119.5t93 -34q48 0 79.5 32t51 124.5t19.5 250.5q0 135 -19.5 215.5t-52 110t-82.5 29.5q-58 0 -89 -30.5t-44.5 -105.5t-13.5 -219z" />
<glyph unicode="&#xd5;" horiz-adv-x="1236" d="M31 758q0 770 577 770q152 0 265.5 -55.5t183 -159t103.5 -242t34 -313.5q0 -178 -33.5 -319.5t-102 -247t-181.5 -162t-265 -56.5q-157 0 -270.5 54.5t-181 160t-98.5 246t-31 324.5zM94 1671q2 51 10 98t29 100.5t52 92t84.5 64.5t121.5 26q69 0 144.5 -24.5t137 -49 t97.5 -24.5t57 22.5t25 83.5l262 -41q2 -25 2 -65q0 -154 -59.5 -241t-177.5 -87q-78 0 -158.5 25t-151 50t-123.5 25q-73 0 -84 -98zM461 780q0 -168 13.5 -253.5t44.5 -119.5t93 -34q48 0 79.5 32t51 124.5t19.5 250.5q0 135 -19.5 215.5t-52 110t-82.5 29.5 q-58 0 -89 -30.5t-44.5 -105.5t-13.5 -219z" />
<glyph unicode="&#xd6;" horiz-adv-x="1236" d="M31 758q0 770 577 770q152 0 265.5 -55.5t183 -159t103.5 -242t34 -313.5q0 -178 -33.5 -319.5t-102 -247t-181.5 -162t-265 -56.5q-157 0 -270.5 54.5t-181 160t-98.5 246t-31 324.5zM172 1823q0 99 55 144.5t148 45.5q94 0 148.5 -45.5t54.5 -144.5t-54.5 -145 t-148.5 -46q-93 0 -148 46t-55 145zM461 780q0 -168 13.5 -253.5t44.5 -119.5t93 -34q48 0 79.5 32t51 124.5t19.5 250.5q0 135 -19.5 215.5t-52 110t-82.5 29.5q-58 0 -89 -30.5t-44.5 -105.5t-13.5 -219zM647 1823q0 99 54.5 144.5t148.5 45.5q93 0 148 -45.5t55 -144.5 t-55 -145t-148 -46q-94 0 -148.5 46t-54.5 145z" />
<glyph unicode="&#xd7;" d="M92 502l199 198l-199 199l221 221l199 -198l199 198l221 -221l-199 -199l199 -198l-221 -221l-199 198l-199 -198z" />
<glyph unicode="&#xd8;" horiz-adv-x="1265" d="M-4 -39l154 281q-99 185 -99 516q0 770 578 770q102 0 194 -29l119 221l297 -186l-139 -256q114 -194 114 -520q0 -142 -20.5 -260.5t-65 -216.5t-112 -166t-164.5 -105t-219 -37q-113 0 -217 33l-127 -235zM475 782q0 -175 14.5 -264.5t47 -124.5t96.5 -35q51 0 83 33.5 t52 129.5t20 261q0 140 -20 223t-53.5 113.5t-85.5 30.5q-61 0 -93 -31t-46.5 -109.5t-14.5 -226.5z" />
<glyph unicode="&#xd9;" horiz-adv-x="1290" d="M102 647v858h418v-874q0 -154 24.5 -212.5t96.5 -58.5q69 0 94 60t25 213v872h416v-858q0 -363 -129 -520.5t-406 -157.5q-195 0 -311 64.5t-172 212.5t-56 401zM365 1720l51 361l588 -174l-64 -273z" />
<glyph unicode="&#xda;" horiz-adv-x="1290" d="M102 647v858h418v-874q0 -154 24.5 -212.5t96.5 -58.5q69 0 94 60t25 213v872h416v-858q0 -363 -129 -520.5t-406 -157.5q-195 0 -311 64.5t-172 212.5t-56 401zM338 1907l588 174l51 -361l-576 -86z" />
<glyph unicode="&#xdb;" horiz-adv-x="1290" d="M102 647v858h418v-874q0 -154 24.5 -212.5t96.5 -58.5q69 0 94 60t25 213v872h416v-858q0 -363 -129 -520.5t-406 -157.5q-195 0 -311 64.5t-172 212.5t-56 401zM256 1864q8 4 38.5 20.5t37.5 20t33 17.5t33.5 18.5t29 16.5t30.5 18t26.5 16.5t28.5 18.5t25 18t27 20h176 l277 -195l-176 -239l-195 141q-120 -82 -246 -143z" />
<glyph unicode="&#xdc;" horiz-adv-x="1290" d="M102 647v858h418v-874q0 -154 24.5 -212.5t96.5 -58.5q69 0 94 60t25 213v872h416v-858q0 -363 -129 -520.5t-406 -157.5q-195 0 -311 64.5t-172 212.5t-56 401zM197 1823q0 99 54.5 144.5t147.5 45.5q94 0 148.5 -45.5t54.5 -144.5t-54.5 -145t-148.5 -46 q-93 0 -147.5 46t-54.5 145zM672 1823q0 190 202 190q93 0 148 -45.5t55 -144.5t-55 -145t-148 -46q-94 0 -148 46t-54 145z" />
<glyph unicode="&#xdd;" horiz-adv-x="1177" d="M-12 1505h430l174 -518l156 518h430l-406 -975v-530h-395v530zM283 1907l587 174l52 -361l-576 -86z" />
<glyph unicode="&#xde;" horiz-adv-x="1081" d="M88 0v1505h379v-237h16q160 0 274 -33t179 -96t94 -144.5t29 -189.5q0 -248 -136 -384t-391 -136h-65v-285h-379zM467 608h31q99 0 145.5 41.5t46.5 145.5q0 83 -36.5 126.5t-129.5 43.5q-38 0 -57 -7v-350z" />
<glyph unicode="&#xdf;" horiz-adv-x="1280" d="M27 764v338h120v78q0 107 32 182t95 117.5t145 61t193 18.5q109 0 192 -20.5t133 -53t81 -81t42 -97t11 -107.5q0 -69 -21.5 -134t-43 -119t-21.5 -97q0 -35 21.5 -69t68.5 -79q87 -82 127.5 -158.5t40.5 -197.5q0 -175 -104.5 -276t-284.5 -101q-135 0 -236 35l58 305 q62 -16 108 -16q86 0 86 65q0 23 -13.5 47.5t-30 42t-54.5 54.5q-37 35 -58.5 59.5t-45 61.5t-34.5 82.5t-11 101.5q0 64 44 183t44 167q0 76 -86 76q-57 0 -72.5 -30t-15.5 -109v-1094h-390v764h-120z" />
<glyph unicode="&#xe0;" horiz-adv-x="962" d="M16 324q0 108 31 182t92 114t136 56t178 16q50 0 79 -2q-1 66 -42.5 92.5t-129.5 26.5q-74 0 -200 -14l-39 301q153 32 315 32q127 0 217.5 -31t143 -91.5t76.5 -139.5t24 -184v-682h-274l-17 72q-118 -90 -262 -90q-147 0 -237.5 89t-90.5 253zM221 1346l96 342 l521 -236l-97 -264zM379 338q0 -59 63 -59q51 0 90 26v115h-30q-78 -6 -100.5 -23t-22.5 -59z" />
<glyph unicode="&#xe1;" horiz-adv-x="962" d="M16 324q0 108 31 182t92 114t136 56t178 16q50 0 79 -2q-1 66 -42.5 92.5t-129.5 26.5q-74 0 -200 -14l-39 301q153 32 315 32q127 0 217.5 -31t143 -91.5t76.5 -139.5t24 -184v-682h-274l-17 72q-118 -90 -262 -90q-147 0 -237.5 89t-90.5 253zM145 1452l521 236 l96 -342l-520 -158zM379 338q0 -59 63 -59q51 0 90 26v115h-30q-78 -6 -100.5 -23t-22.5 -59z" />
<glyph unicode="&#xe2;" horiz-adv-x="962" d="M16 324q0 108 31 182t92 114t136 56t178 16q50 0 79 -2q-1 66 -42.5 92.5t-129.5 26.5q-74 0 -200 -14l-39 301q153 32 315 32q127 0 217.5 -31t143 -91.5t76.5 -139.5t24 -184v-682h-274l-17 72q-118 -90 -262 -90q-147 0 -237.5 89t-90.5 253zM104 1450 q199 136 295 225h193l264 -243l-194 -218l-177 166q-102 -92 -217 -166zM379 338q0 -59 63 -59q51 0 90 26v115h-30q-78 -6 -100.5 -23t-22.5 -59z" />
<glyph unicode="&#xe3;" horiz-adv-x="962" d="M16 324q0 108 31 182t92 114t136 56t178 16q50 0 79 -2q-1 66 -42.5 92.5t-129.5 26.5q-74 0 -200 -14l-39 301q153 32 315 32q127 0 217.5 -31t143 -91.5t76.5 -139.5t24 -184v-682h-274l-17 72q-118 -90 -262 -90q-147 0 -237.5 89t-90.5 253zM37 1272q9 170 68 263 t165 93q59 0 125 -19.5t116 -39t69 -19.5q26 0 40.5 19t18.5 71l246 -38q2 -25 2 -64q0 -144 -51 -227.5t-148 -83.5q-65 0 -133 22t-121.5 44t-83.5 22q-48 0 -61 -82zM379 338q0 -59 63 -59q51 0 90 26v115h-30q-78 -6 -100.5 -23t-22.5 -59z" />
<glyph unicode="&#xe4;" horiz-adv-x="962" d="M16 324q0 108 31 182t92 114t136 56t178 16q50 0 79 -2q-1 66 -42.5 92.5t-129.5 26.5q-74 0 -200 -14l-39 301q153 32 315 32q127 0 217.5 -31t143 -91.5t76.5 -139.5t24 -184v-682h-274l-17 72q-118 -90 -262 -90q-147 0 -237.5 89t-90.5 253zM82 1417q0 87 48.5 128.5 t127.5 41.5q80 0 129 -41.5t49 -128.5t-49 -128.5t-129 -41.5q-79 0 -127.5 41.5t-48.5 128.5zM379 338q0 -59 63 -59q51 0 90 26v115h-30q-78 -6 -100.5 -23t-22.5 -59zM543 1417q0 87 49 128.5t129 41.5q79 0 127.5 -41.5t48.5 -128.5t-48.5 -128.5t-127.5 -41.5 q-80 0 -129 41.5t-49 128.5z" />
<glyph unicode="&#xe5;" horiz-adv-x="962" d="M16 324q0 108 31 182t92 114t136 56t178 16q50 0 79 -2q-1 66 -42.5 92.5t-129.5 26.5q-74 0 -200 -14l-39 301q153 32 315 32q127 0 217.5 -31t143 -91.5t76.5 -139.5t24 -184v-682h-274l-17 72q-118 -90 -262 -90q-147 0 -237.5 89t-90.5 253zM172 1473 q0 131 78.5 201.5t228.5 70.5q149 0 229 -70.5t80 -201.5q0 -132 -80.5 -203.5t-228.5 -71.5q-149 0 -228 71.5t-79 203.5zM379 338q0 -59 63 -59q51 0 90 26v115h-30q-78 -6 -100.5 -23t-22.5 -59zM399 1473q0 -78 80 -78q39 0 60.5 20.5t21.5 57.5q0 34 -21.5 54.5 t-60.5 20.5q-80 0 -80 -75z" />
<glyph unicode="&#xe6;" horiz-adv-x="1511" d="M23 324q0 108 31 182t91.5 114t135.5 56t178 16q51 0 80 -2q-1 66 -42.5 92.5t-129.5 26.5q-75 0 -201 -14l-39 301q153 32 315 32q218 0 308 -127q93 121 272 121q246 0 353.5 -170t72.5 -506h-504q6 -40 23 -65.5t43 -36t45.5 -13.5t48.5 -3q139 0 266 65l103 -291 q-77 -56 -183 -87t-221 -31q-250 0 -383 161q-136 -163 -336 -163q-147 0 -237 89t-90 253zM385 338q0 -59 64 -59q85 0 135 71q-8 33 -15 70h-61q-78 -6 -100.5 -23t-22.5 -59zM934 715h188q-10 58 -33 79t-65 21t-62.5 -20t-27.5 -80z" />
<glyph unicode="&#xe7;" horiz-adv-x="921" d="M49 545q0 267 132 424t372 157q88 0 171 -25t140 -71l-112 -309q-75 47 -168 47q-69 0 -103.5 -57.5t-34.5 -161.5t34 -155.5t126 -51.5q43 0 99.5 18t91.5 41l108 -303q-59 -46 -156.5 -78.5t-191.5 -35.5l-22 -68q159 -24 159 -188q0 -109 -66 -170.5t-186 -61.5 q-122 0 -206 45l55 180q62 -28 121 -28q69 0 69 45q0 27 -18.5 38t-59.5 11h-96l68 219q-163 48 -244.5 189t-81.5 350z" />
<glyph unicode="&#xe8;" horiz-adv-x="978" d="M20 561q0 270 117 415.5t346 145.5q246 0 353.5 -170t72.5 -506h-503q6 -40 23 -65.5t42.5 -36t45 -13.5t48.5 -3q139 0 266 65l103 -291q-77 -56 -183 -87t-221 -31q-249 0 -379.5 156.5t-130.5 420.5zM217 1346l96 342l521 -236l-97 -264zM395 715h189q-10 58 -33.5 79 t-65.5 21t-62.5 -20t-27.5 -80z" />
<glyph unicode="&#xe9;" horiz-adv-x="978" d="M20 561q0 270 117 415.5t346 145.5q246 0 353.5 -170t72.5 -506h-503q6 -40 23 -65.5t42.5 -36t45 -13.5t48.5 -3q139 0 266 65l103 -291q-77 -56 -183 -87t-221 -31q-249 0 -379.5 156.5t-130.5 420.5zM139 1452l520 236l97 -342l-520 -158zM395 715h189 q-10 58 -33.5 79t-65.5 21t-62.5 -20t-27.5 -80z" />
<glyph unicode="&#xea;" horiz-adv-x="978" d="M20 561q0 270 117 415.5t346 145.5q246 0 353.5 -170t72.5 -506h-503q6 -40 23 -65.5t42.5 -36t45 -13.5t48.5 -3q139 0 266 65l103 -291q-77 -56 -183 -87t-221 -31q-249 0 -379.5 156.5t-130.5 420.5zM104 1450q199 136 295 225h193l264 -243l-194 -218l-177 166 q-102 -92 -217 -166zM395 715h189q-10 58 -33.5 79t-65.5 21t-62.5 -20t-27.5 -80z" />
<glyph unicode="&#xeb;" horiz-adv-x="978" d="M20 561q0 270 117 415.5t346 145.5q246 0 353.5 -170t72.5 -506h-503q6 -40 23 -65.5t42.5 -36t45 -13.5t48.5 -3q139 0 266 65l103 -291q-77 -56 -183 -87t-221 -31q-249 0 -379.5 156.5t-130.5 420.5zM94 1417q0 87 48.5 128.5t127.5 41.5q80 0 129.5 -41.5 t49.5 -128.5t-49.5 -128.5t-129.5 -41.5q-79 0 -127.5 41.5t-48.5 128.5zM395 715h189q-10 58 -33.5 79t-65.5 21t-62.5 -20t-27.5 -80zM555 1417q0 87 49 128.5t129 41.5q79 0 127.5 -41.5t48.5 -128.5t-48.5 -128.5t-127.5 -41.5q-80 0 -129 41.5t-49 128.5z" />
<glyph unicode="&#xec;" horiz-adv-x="548" d="M8 1491l152 324l448 -291l-135 -250zM82 0v1102h387v-1102h-387z" />
<glyph unicode="&#xed;" horiz-adv-x="548" d="M-18 1524l448 291l152 -324l-465 -217zM82 0v1102h387v-1102h-387z" />
<glyph unicode="&#xee;" horiz-adv-x="548" d="M-68 1440q191 150 265 231h188l236 -258l-207 -194l-135 153q-82 -85 -170 -153zM82 0v1102h387v-1102h-387z" />
<glyph unicode="&#xef;" horiz-adv-x="548" d="M-100 1427q0 86 47 126t125 40t127 -40t49 -126q0 -85 -48.5 -125t-127.5 -40q-78 0 -125 39.5t-47 125.5zM82 0v1102h387v-1102h-387zM301 1427q0 86 49 126t127 40t125 -40t47 -126t-47 -125.5t-125 -39.5q-79 0 -127.5 40t-48.5 125z" />
<glyph unicode="&#xf0;" horiz-adv-x="1093" d="M39 539q0 110 28.5 206.5t83 171.5t141 118.5t195.5 43.5q55 0 127 -16q-35 102 -148 150.5t-337 48.5l47 325q295 0 492 -88l229 154l166 -238l-162 -106q90 -129 120 -311.5t30 -446.5q0 -260 -130 -413.5t-380 -153.5q-256 0 -379 144t-123 411zM453 551 q0 -137 24 -187.5t80 -50.5q34 0 53 16t31 69.5t12 152.5v176q-48 33 -96 33q-60 0 -82 -53.5t-22 -155.5z" />
<glyph unicode="&#xf1;" horiz-adv-x="1060" d="M53 0v1092l330 30l20 -92q106 98 259 98q99 0 167 -29.5t106.5 -88t54.5 -134.5t16 -182v-694h-402v625q0 86 -15.5 114.5t-64.5 28.5q-32 0 -61 -10v-758h-410zM98 1272q9 170 68.5 263t165.5 93q59 0 125 -19.5t115.5 -39t68.5 -19.5q26 0 40.5 19t18.5 71l246 -38 q2 -25 2 -64q0 -144 -50.5 -227.5t-147.5 -83.5q-65 0 -133 22t-121.5 44t-83.5 22q-49 0 -62 -82z" />
<glyph unicode="&#xf2;" horiz-adv-x="1007" d="M20 559q0 264 120.5 414.5t355.5 150.5q156 0 265 -72.5t161.5 -198.5t52.5 -294q0 -264 -121.5 -419.5t-355.5 -155.5q-240 0 -359 152t-119 423zM215 1346l96 342l520 -236l-96 -264zM418 571q0 -157 11.5 -199t68.5 -42q32 0 49 20.5t24 71t7 149.5q0 124 -16 165.5 t-66 41.5q-55 0 -66.5 -37t-11.5 -170z" />
<glyph unicode="&#xf3;" horiz-adv-x="1007" d="M20 559q0 264 120.5 414.5t355.5 150.5q156 0 265 -72.5t161.5 -198.5t52.5 -294q0 -264 -121.5 -419.5t-355.5 -155.5q-240 0 -359 152t-119 423zM143 1452l521 236l96 -342l-520 -158zM418 571q0 -157 11.5 -199t68.5 -42q32 0 49 20.5t24 71t7 149.5q0 124 -16 165.5 t-66 41.5q-55 0 -66.5 -37t-11.5 -170z" />
<glyph unicode="&#xf4;" horiz-adv-x="1007" d="M20 559q0 264 120.5 414.5t355.5 150.5q156 0 265 -72.5t161.5 -198.5t52.5 -294q0 -264 -121.5 -419.5t-355.5 -155.5q-240 0 -359 152t-119 423zM117 1450q198 136 295 225h192l264 -243l-194 -218l-176 166q-102 -92 -217 -166zM418 571q0 -157 11.5 -199t68.5 -42 q32 0 49 20.5t24 71t7 149.5q0 124 -16 165.5t-66 41.5q-55 0 -66.5 -37t-11.5 -170z" />
<glyph unicode="&#xf5;" horiz-adv-x="1007" d="M20 559q0 264 120.5 414.5t355.5 150.5q156 0 265 -72.5t161.5 -198.5t52.5 -294q0 -264 -121.5 -419.5t-355.5 -155.5q-240 0 -359 152t-119 423zM72 1272q9 170 68 263t165 93q59 0 125 -19.5t115.5 -39t68.5 -19.5q26 0 41 19t19 71l246 -38q2 -25 2 -64 q0 -144 -51 -227.5t-148 -83.5q-65 0 -133 22t-121.5 44t-83.5 22q-48 0 -61 -82zM418 571q0 -157 11.5 -199t68.5 -42q32 0 49 20.5t24 71t7 149.5q0 124 -16 165.5t-66 41.5q-55 0 -66.5 -37t-11.5 -170z" />
<glyph unicode="&#xf6;" horiz-adv-x="1007" d="M20 559q0 264 120.5 414.5t355.5 150.5q156 0 265 -72.5t161.5 -198.5t52.5 -294q0 -264 -121.5 -419.5t-355.5 -155.5q-240 0 -359 152t-119 423zM111 1417q0 87 48.5 128.5t127.5 41.5q80 0 129 -41.5t49 -128.5t-49 -128.5t-129 -41.5q-79 0 -127.5 41.5t-48.5 128.5z M418 571q0 -157 11.5 -199t68.5 -42q32 0 49 20.5t24 71t7 149.5q0 124 -16 165.5t-66 41.5q-55 0 -66.5 -37t-11.5 -170zM571 1417q0 87 49.5 128.5t129.5 41.5q79 0 127.5 -41.5t48.5 -128.5t-48.5 -128.5t-127.5 -41.5q-80 0 -129.5 41.5t-49.5 128.5z" />
<glyph unicode="&#xf7;" d="M74 559v324h876v-324h-876zM317 293q0 188 193 188q195 0 195 -188q0 -189 -195 -189q-193 0 -193 189zM317 1149q0 188 193 188q195 0 195 -188t-195 -188q-193 0 -193 188z" />
<glyph unicode="&#xf8;" horiz-adv-x="1007" d="M16 -33l109 197q-98 141 -98 395q0 264 120 414.5t355 150.5q51 0 106 -10l123 221l307 -190l-135 -246q78 -141 78 -340q0 -264 -121.5 -419.5t-355.5 -155.5q-26 0 -66 4l-119 -219zM414 571q0 -163 14 -208.5t76 -45.5q53 0 71.5 51t18.5 203q0 131 -18.5 175.5 t-73.5 44.5q-60 0 -74 -40.5t-14 -179.5z" />
<glyph unicode="&#xf9;" horiz-adv-x="1044" d="M49 385v717h402v-637q0 -74 12 -104.5t43 -30.5q35 0 67 18v754h402v-1102h-268l-19 98q-118 -125 -313 -125q-179 0 -252.5 101t-73.5 311zM227 1346l97 342l520 -236l-96 -264z" />
<glyph unicode="&#xfa;" horiz-adv-x="1044" d="M49 385v717h402v-637q0 -74 12 -104.5t43 -30.5q35 0 67 18v754h402v-1102h-268l-19 98q-118 -125 -313 -125q-179 0 -252.5 101t-73.5 311zM201 1452l520 236l96 -342l-520 -158z" />
<glyph unicode="&#xfb;" horiz-adv-x="1044" d="M49 385v717h402v-637q0 -74 12 -104.5t43 -30.5q35 0 67 18v754h402v-1102h-268l-19 98q-118 -125 -313 -125q-179 0 -252.5 101t-73.5 311zM131 1450q199 136 295 225h192l265 -243l-195 -218l-176 166q-102 -92 -217 -166z" />
<glyph unicode="&#xfc;" horiz-adv-x="1044" d="M49 385v717h402v-637q0 -74 12 -104.5t43 -30.5q35 0 67 18v754h402v-1102h-268l-19 98q-118 -125 -313 -125q-179 0 -252.5 101t-73.5 311zM102 1417q0 87 49 128.5t128 41.5q80 0 129 -41.5t49 -128.5t-49 -128.5t-129 -41.5q-79 0 -128 41.5t-49 128.5zM563 1417 q0 87 49 128.5t129 41.5q79 0 128 -41.5t49 -128.5t-49 -128.5t-128 -41.5q-80 0 -129 41.5t-49 128.5z" />
<glyph unicode="&#xfd;" horiz-adv-x="1015" d="M-25 1102h414l121 -488l102 488h404l-314 -1049q-43 -141 -79.5 -226.5t-85 -144t-106.5 -80.5t-142 -22q-130 0 -228 25l50 338q55 -9 82 -9q51 0 70 12.5t36 57.5l18 66zM193 1452l520 236l96 -342l-520 -158z" />
<glyph unicode="&#xfe;" horiz-adv-x="1140" d="M82 -395v1908l397 29v-469q98 53 209 53q197 0 299.5 -141t102.5 -393q0 -278 -111.5 -441t-312.5 -163q-95 0 -177 39v-422h-407zM489 358q38 -18 76 -18q109 0 109 240q0 108 -25.5 164.5t-87.5 56.5q-30 0 -72 -33v-410z" />
<glyph unicode="&#xff;" horiz-adv-x="1015" d="M-25 1102h414l121 -488l102 488h404l-314 -1049q-43 -141 -79.5 -226.5t-85 -144t-106.5 -80.5t-142 -22q-130 0 -228 25l50 338q55 -9 82 -9q51 0 70 12.5t36 57.5l18 66zM100 1417q0 87 48.5 128.5t127.5 41.5q80 0 129.5 -41.5t49.5 -128.5t-49.5 -128.5t-129.5 -41.5 q-79 0 -127.5 41.5t-48.5 128.5zM561 1417q0 87 49 128.5t129 41.5q79 0 127.5 -41.5t48.5 -128.5t-48.5 -128.5t-127.5 -41.5q-80 0 -129 41.5t-49 128.5z" />
<glyph unicode="&#x152;" horiz-adv-x="1705" d="M37 758q0 177 30 315.5t92.5 242t166.5 158t245 54.5q223 0 344 -160v137h760v-340h-420v-209h334l-20 -340h-314v-276h420v-340h-760v137q-113 -164 -346 -164q-532 0 -532 785zM467 780q0 -168 12 -254t39 -119.5t80 -33.5q31 0 53.5 18t40 62t26.5 125.5t9 201.5 q0 135 -17 215.5t-44.5 110t-71.5 29.5q-50 0 -76.5 -30t-38.5 -106t-12 -219z" />
<glyph unicode="&#x153;" horiz-adv-x="1548" d="M27 559q0 170 48 295t150.5 197.5t251.5 72.5q183 0 295 -133q106 131 287 131q246 0 353.5 -170t72.5 -506h-504q6 -40 23 -65.5t43 -36t45.5 -13.5t48.5 -3q139 0 266 65l102 -291q-77 -56 -182.5 -87t-220.5 -31q-205 0 -322 145q-106 -145 -309 -145 q-225 0 -336.5 154.5t-111.5 420.5zM424 571q0 -157 11.5 -199t68.5 -42q32 0 49 20.5t24 71t7 149.5q0 124 -16 165.5t-66 41.5q-55 0 -66.5 -37t-11.5 -170zM971 715h188q-10 58 -33 79t-65 21t-62.5 -20t-27.5 -80z" />
<glyph unicode="&#x178;" horiz-adv-x="1177" d="M-12 1505h430l174 -518l156 518h430l-406 -975v-530h-395v530zM158 1823q0 99 54.5 144.5t147.5 45.5q94 0 148.5 -45.5t54.5 -144.5t-54.5 -145t-148.5 -46q-93 0 -147.5 46t-54.5 145zM633 1823q0 99 54.5 144.5t148.5 45.5q93 0 147.5 -45.5t54.5 -144.5t-54.5 -145 t-147.5 -46q-94 0 -148.5 46t-54.5 145z" />
<glyph unicode="&#x2c6;" horiz-adv-x="806" d="M41 1450q199 136 295 225h192l265 -243l-195 -218l-176 166q-102 -92 -217 -166z" />
<glyph unicode="&#x2dc;" horiz-adv-x="806" d="M-23 1272q9 170 68.5 263t165.5 93q59 0 125 -19.5t115.5 -39t68.5 -19.5q26 0 41 19t19 71l245 -38q2 -25 2 -64q0 -144 -50.5 -227.5t-147.5 -83.5q-65 0 -133 22t-121.5 44t-83.5 22q-49 0 -62 -82z" />
<glyph unicode="&#x2000;" horiz-adv-x="1063" />
<glyph unicode="&#x2001;" horiz-adv-x="2126" />
<glyph unicode="&#x2002;" horiz-adv-x="1063" />
<glyph unicode="&#x2003;" horiz-adv-x="2126" />
<glyph unicode="&#x2004;" horiz-adv-x="708" />
<glyph unicode="&#x2005;" horiz-adv-x="531" />
<glyph unicode="&#x2006;" horiz-adv-x="354" />
<glyph unicode="&#x2007;" horiz-adv-x="354" />
<glyph unicode="&#x2008;" horiz-adv-x="265" />
<glyph unicode="&#x2009;" horiz-adv-x="425" />
<glyph unicode="&#x200a;" horiz-adv-x="118" />
<glyph unicode="&#x2010;" horiz-adv-x="745" d="M66 430v313h614v-313h-614z" />
<glyph unicode="&#x2011;" horiz-adv-x="745" d="M66 430v313h614v-313h-614z" />
<glyph unicode="&#x2012;" horiz-adv-x="745" d="M66 430v313h614v-313h-614z" />
<glyph unicode="&#x2013;" horiz-adv-x="1191" d="M66 430v313h1060v-313h-1060z" />
<glyph unicode="&#x2014;" horiz-adv-x="2228" d="M66 430v313h2097v-313h-2097z" />
<glyph unicode="&#x2018;" horiz-adv-x="512" d="M43 1120q0 70 57 213l74 195l229 -39l-41 -203q82 -51 82 -164q0 -93 -54 -138.5t-152 -45.5q-83 0 -139 46.5t-56 135.5z" />
<glyph unicode="&#x2019;" horiz-adv-x="512" d="M68 1343q0 93 54 139t152 46q83 0 139 -46.5t56 -135.5q0 -70 -57 -213l-74 -195l-229 39l41 203q-82 51 -82 163z" />
<glyph unicode="&#x201a;" horiz-adv-x="557" d="M102 100q0 93 54.5 139t152.5 46q82 0 138.5 -47t56.5 -136q0 -67 -58 -213l-73 -194l-230 39l41 203q-82 51 -82 163z" />
<glyph unicode="&#x201c;" horiz-adv-x="974" d="M43 1120q0 70 57 213l74 195l229 -39l-41 -203q82 -51 82 -164q0 -93 -54 -138.5t-152 -45.5q-83 0 -139 46.5t-56 135.5zM506 1120q0 70 57 213l74 195l229 -39l-41 -203q82 -51 82 -164q0 -93 -54.5 -138.5t-152.5 -45.5q-82 0 -138 46.5t-56 135.5z" />
<glyph unicode="&#x201d;" horiz-adv-x="972" d="M68 1343q0 93 54 139t152 46q83 0 139 -46.5t56 -135.5q0 -70 -57 -213l-74 -195l-229 39l41 203q-82 51 -82 163zM528 1343q0 93 54.5 139t152.5 46q83 0 139 -46.5t56 -135.5q0 -67 -58 -213l-73 -195l-230 39l41 203q-82 51 -82 163z" />
<glyph unicode="&#x201e;" horiz-adv-x="995" d="M102 100q0 93 54.5 139t152.5 46q82 0 138.5 -47t56.5 -136q0 -67 -58 -213l-73 -194l-230 39l41 203q-82 51 -82 163zM541 100q0 93 54.5 139t152.5 46q82 0 138 -47t56 -136q0 -70 -57 -213l-74 -194l-229 39l41 203q-82 51 -82 163z" />
<glyph unicode="&#x2022;" horiz-adv-x="647" d="M45 766q0 136 73 208.5t204 72.5q134 0 207 -72t73 -209q0 -135 -72.5 -206t-207.5 -71q-131 0 -204 71t-73 206z" />
<glyph unicode="&#x2026;" horiz-adv-x="1509" d="M63 164q0 192 197 192q199 0 199 -192q0 -101 -53.5 -147t-145.5 -46q-197 0 -197 193zM557 164q0 192 197 192q198 0 198 -192q0 -193 -198 -193q-197 0 -197 193zM1051 164q0 192 196 192q199 0 199 -192q0 -101 -53.5 -147t-145.5 -46q-196 0 -196 193z" />
<glyph unicode="&#x202f;" horiz-adv-x="425" />
<glyph unicode="&#x2039;" horiz-adv-x="802" d="M76 459v225l620 381l41 -352l-229 -140l227 -120l-35 -365z" />
<glyph unicode="&#x203a;" horiz-adv-x="802" d="M66 713l40 352l621 -381v-225l-625 -371l-34 365l227 120z" />
<glyph unicode="&#x205f;" horiz-adv-x="531" />
<glyph unicode="&#x20ac;" d="M74 436v275h86v63h-84v275h112q49 228 182.5 352.5t356.5 124.5q182 0 322 -45l-80 -348q-40 13 -103.5 20.5t-97.5 7.5q-128 0 -162 -112h256l-22 -275h-273q-2 -19 -2 -35l2 -28h269l-21 -275h-207q37 -88 158 -88q119 0 219 41l76 -332q-117 -75 -352 -75 q-424 0 -521 454h-114z" />
<glyph unicode="&#x2122;" horiz-adv-x="1763" d="M35 1243v262h610v-262h-153v-485h-308v485h-149zM702 758l43 747h375l84 -284l105 284h358l31 -747h-283l-4 358l-113 -358h-204l-99 364l-12 -364h-281z" />
<glyph unicode="&#x25fc;" horiz-adv-x="1105" d="M0 0v1106h1106v-1106h-1106z" />
</font>
</defs>
</svg>
